PathFileType	4	(X/Y/Z)	../Python\running\Running03\task.trc
DataRate	CameraRate	NumFrames	NumMarkers	Units	OrigDataRate	OrigDataStartFrame	OrigNumFrames
200.000000	200.000000	5	30	mm	200.000000	0	198
Frame#	Time	C7			RBAK			CLAV			STRN			RASI			RPSI			LASI			PE01			RTH2			RTH3			RD5M			RTOE			LTH2			LTH3			LTB2			LTB3			LHEE			LTOE			LD5M			RHEE			RTH1			RTB2			LPSI			T10			RTB1			PE03			RTB3			PE02			LTH1			LTB1			
		X1	Y1	Z1	X2	Y2	Z2	X3	Y3	Z3	X4	Y4	Z4	X5	Y5	Z5	X6	Y6	Z6	X7	Y7	Z7	X8	Y8	Z8	X9	Y9	Z9	X10	Y10	Z10	X11	Y11	Z11	X12	Y12	Z12	X13	Y13	Z13	X14	Y14	Z14	X15	Y15	Z15	X16	Y16	Z16	X17	Y17	Z17	X18	Y18	Z18	X19	Y19	Z19	X20	Y20	Z20	X21	Y21	Z21	X22	Y22	Z22	X23	Y23	Z23	X24	Y24	Z24	X25	Y25	Z25	X26	Y26	Z26	X27	Y27	Z27	X28	Y28	Z28	X29	Y29	Z29	X30	Y30	Z30	

1	0	-1334.889404296875	1353.120971679688	139.0106201171876	-1344.98974609375	1270.151000976563	267.1148986816407	-1228.561767578125	1249.918090820313	103.3924179077149	-1204.567626953125	1054.8701171875	102.4010467529297	-1281.171630859375	841.7903442382817	268.3615722656251	-1449.6240234375	945.1657714843755	205.4276428222657	-1260.49951171875	872.199584960938	49.55261230468753	-1428.898681640625	970.932250976563	166.8489837646485	-1514.497436523438	540.8091430664065	249.4199066162111	-1465.109619140625	573.2971191406252	267.4814758300782	-1835.911376953126	79.19776153564456	202.4786224365236	-1806.565673828126	56.24791336059573	155.2390136718751	-1243.454833984375	572.2176513671877	11.3738374710083	-1192.417236328125	630.752380371094	7.630362033843998	-1148.443603515625	230.5326232910157	9.451715469360355	-1117.974975585938	268.1676635742189	14.66610717773438	-1141.137573242188	54.07145309448245	60.07507324218753	-959.5709838867192	68.6867599487305	73.19475555419925	-985.9791870117192	45.95219802856447	24.04554557800294	-1854.201293945313	225.8755035400392	132.5096893310547	-1493.016967773438	614.9356689453127	269.9162597656251	-1704.703735351563	351.2867126464845	224.1935882568361	-1448.401245117188	944.2719726562505	121.0529327392579	-1408.888427734375	1070.985595703125	178.7964477539063	-1644.143066406251	356.6604003906251	228.8867187500001	-1463.473510742188	929.7370605468755	126.8389129638672	-1698.042968750001	300.0301513671876	216.1565246582032	-1473.209228515625	922.258911132813	175.9362030029297	-1241.271606445313	632.5828857421877	-0.8844001293182377	-1163.954833984375	307.9715270996095	1.92602550983429	
2	0.005	-1318.708618164063	1353.670288085938	137.6854248046876	-1327.974609375	1271.378051757813	266.5188903808595	-1212.4921875	1251.045776367188	101.8613739013672	-1187.778930664063	1057.757690429688	102.0370864868165	-1263.617309570313	843.1545410156255	268.4031372070314	-1431.374755859375	947.0657348632817	206.1872100830079	-1243.512817382813	873.7153930664067	50.22094726562503	-1411.459228515625	973.4199218750005	167.4499969482422	-1495.868408203125	540.2820434570315	249.4769134521486	-1446.805419921875	573.3546142578127	267.2240600585939	-1826.893676757813	87.05820465087893	200.6924591064454	-1798.608154296876	63.58023452758792	153.4190521240235	-1228.333374023438	571.9323730468752	10.76123046875	-1176.25732421875	630.0301513671877	5.461703777313234	-1128.226196289063	231.2029418945314	10.60282039642334	-1098.465454101563	269.6758422851564	14.89778804779053	-1116.459838867188	56.13501739501956	61.38671493530276	-934.6517944335942	72.58074188232425	74.04753875732425	-960.8621215820317	49.08561706542972	25.14414215087892	-1842.624755859376	234.0202636718751	130.5250701904297	-1475.029907226563	614.6292114257815	269.6221313476564	-1688.610839843751	353.1144104003907	223.6643218994142	-1430.992309570313	946.5088500976567	121.6627655029297	-1392.479125976563	1072.328857421875	178.4687500000001	-1627.470458984376	356.5107421875001	226.3645019531251	-1445.504028320313	931.9101562500005	127.3858184814454	-1683.635986328126	302.2681579589845	214.4735107421876	-1455.215698242188	924.3179321289067	176.4785308837891	-1225.487060546875	631.982116699219	-2.253392457962037	-1145.623901367188	308.1715087890626	2.877090215682984	
3	0.01	-1302.515747070313	1353.997314453125	136.3541107177735	-1311.036743164063	1272.385131835938	265.8781738281251	-1196.40380859375	1251.932373046875	100.411476135254	-1171.035522460938	1060.255737304688	101.7208480834962	-1246.061401367188	844.337280273438	268.4359130859376	-1413.260986328125	948.6608886718755	206.8442687988282	-1226.56494140625	874.9436645507817	50.78833007812503	-1394.12109375	975.5051879882817	167.9334869384766	-1476.881591796875	539.3482666015627	249.5982208251954	-1428.119140625	572.9891357421877	266.9462280273439	-1817.334350585938	94.90859222412112	198.9551849365236	-1790.041503906251	70.82246398925784	151.7149505615235	-1212.978271484375	571.4605712890627	10.25496482849121	-1160.026245117188	629.1468505859377	3.407372474670412	-1108.666137695313	231.6996002197267	11.59943675994873	-1079.493774414063	270.8314208984376	15.18762302398682	-1093.385986328125	57.80076980590823	62.66941833496097	-911.3901367187505	75.40977478027347	74.82608032226565	-937.490112304688	51.25418090820315	26.23167610168458	-1830.338500976563	241.9962005615236	128.4876251220704	-1456.6796875	613.915466308594	269.4502563476564	-1672.136840820313	354.8875122070314	223.1303710937501	-1413.675415039063	948.2912597656255	122.1837387084962	-1376.090942382813	1073.395874023438	178.1150665283204	-1610.528076171876	356.3394165039064	224.1505889892579	-1427.67919921875	933.6311645507817	127.906234741211	-1668.796020507813	304.4348754882814	212.8852844238282	-1437.323364257813	925.9985351562505	177.0121459960938	-1209.58203125	631.2207641601565	-3.49561929702759	-1127.591186523438	308.2906494140626	3.709983348846437	
4	0.015	-1286.310668945313	1354.101928710938	135.0166778564454	-1294.17578125	1273.172241210938	265.1926879882814	-1180.296264648438	1252.57763671875	99.04260253906256	-1154.337280273438	1062.363891601563	101.4521942138672	-1228.504150390625	845.3381347656255	268.4598083496095	-1395.283569335938	949.950561523438	207.3990478515626	-1209.65576171875	875.884155273438	51.25478744506839	-1376.883666992188	977.1870117187505	168.2998962402344	-1457.539184570313	538.0115356445315	249.7848510742189	-1409.0537109375	572.204772949219	266.651580810547	-1807.227905273438	102.7467803955079	197.2686767578126	-1780.858764648438	77.97535705566409	150.1279296875001	-1197.389038085938	570.8032226562502	9.854984283447269	-1143.723510742188	628.1044921875002	1.469666481018067	-1089.768676757813	232.0189361572267	12.44504642486573	-1061.063232421875	271.6318664550782	15.53384590148926	-1071.913818359375	59.06718444824222	63.92237091064456	-889.7824707031255	77.17497253417972	75.53582763671878	-915.8613891601567	52.45848083496097	27.31101226806642	-1817.344116210938	249.8013916015626	126.3981933593751	-1437.969116210938	612.7976074218752	269.400848388672	-1655.281494140626	356.6062316894532	222.5920715332032	-1396.450805664063	949.6189575195317	122.6162567138672	-1359.723876953125	1074.186645507813	177.7355957031251	-1593.315795898438	356.1468811035157	222.2452087402345	-1409.998901367188	934.8998413085942	128.4001617431641	-1653.522705078126	306.530242919922	211.3922271728517	-1419.5322265625	927.2999877929692	177.5369567871094	-1193.556396484375	630.299743652344	-4.610661029815676	-1109.862060546875	308.3250122070314	4.426523685455324	
5	0.02	-1270.09375	1353.984497070313	133.6730651855469	-1277.391967773438	1273.739624023438	264.4624938964845	-1164.169555664063	1252.981201171875	97.75444030761724	-1137.683715820313	1064.08154296875	101.2306900024415	-1210.945922851563	846.1560668945317	268.4744567871095	-1377.444213867188	950.9325561523442	207.8524322509767	-1192.784912109375	876.536254882813	51.62030410766604	-1359.745483398438	978.4628906250005	168.5506134033204	-1437.845825195313	536.2812500000002	250.0396728515626	-1389.615966796875	571.012145996094	266.3496093750001	-1796.559570312501	110.5669326782227	195.6378173828126	-1771.040893554688	85.04134368896487	148.6612854003907	-1181.564819335938	569.9632568359377	9.560889244079593	-1127.346313476563	626.9078369140627	-0.3457224965095521	-1071.54736328125	232.1512451171876	13.1496868133545	-1043.182861328125	272.070526123047	15.93187522888184	-1052.036499023438	59.9308776855469	65.1436462402344	-869.818725585938	77.881706237793	76.19028472900393	-895.9670410156255	52.70478439331058	28.38587188720705	-1803.645874023438	257.4307250976564	124.2592086791993	-1418.904418945313	611.2836914062502	269.4746093750001	-1638.044189453126	358.2708129882814	222.0504455566407	-1379.318237304688	950.491577148438	122.9614486694337	-1343.37744140625	1074.701049804688	177.3309326171876	-1575.833374023438	355.9341125488282	220.6484985351564	-1392.462890625	935.7155151367192	128.8676452636719	-1637.814697265626	308.5541992187501	209.9954376220704	-1401.842163085938	928.2205200195317	178.052719116211	-1177.409790039063	629.2219238281252	-5.59750270843506	-1092.450073242188	308.2643432617189	5.031949520111086	
